<?xml version="1.0" encoding="UTF-8"?>
<svg width="210mm" height="297mm" version="1.1" viewBox="0 0 210 297" xmlns="http://www.w3.org/2000/svg" xmlns:cc="http://creativecommons.org/ns#" xmlns:dc="http://purl.org/dc/elements/1.1/" xmlns:rdf="http://www.w3.org/1999/02/22-rdf-syntax-ns#">
 <metadata>
  <rdf:RDF>
   <cc:Work rdf:about="">
    <dc:format>image/svg+xml</dc:format>
    <dc:type rdf:resource="http://purl.org/dc/dcmitype/StillImage"/>
    <dc:title/>
   </cc:Work>
  </rdf:RDF>
 </metadata>
 <g transform="matrix(.8749 0 0 .8749 20.636 42.248)">
  <g transform="rotate(161.93 102.62 84.514)">
   <g transform="rotate(34.43 348.55 166.45)">
    <g transform="rotate(.80037 93.812 142.6)">
     <g fill="#fff">
      <path transform="matrix(1.3135 1.2352 -.60649 1.698 -128.16 -84.007)" d="m193.32 4.5174c0 16.933-7.4848 30.66-16.718 30.66-9.2329 1e-6 -16.718-13.727-16.718-30.66s1.6312-29.502 15.35-29.65c9.2727-0.10054 18.086 12.717 18.086 29.65z" stroke="#c7c768" stroke-linecap="round" stroke-width="2.4135"/>
      <ellipse transform="matrix(1.3328 -1.2143 1.6522 .72192 -128.16 -84.007)" cx="-47.828" cy="197.19" rx="12.848" ry="26.066" stroke-opacity="0"/>
      <path transform="matrix(1.222,-1.3258,1.2886,1.2612,-128.16,-84.007)" d="m-3.3092 163.67c1.2e-6 19.298-11.424 40.782-20.217 35.416-3.1905-1.9469-13.629-29.737-15.263-35.565-5.2501-18.728 6.9151-34.793 17.078-34.793s18.402 15.644 18.402 34.942z" stroke-opacity="0"/>
     </g>
     <g shape-rendering="auto">
      <path transform="matrix(1.7822 -.27334 .27334 1.7822 -128.16 -84.007)" d="m72.369 112.07c-10.441-1.0326-18.905 6.9966-20.52 18.004-0.87985 5.999 1.9084 11.892 6.0879 17.311s9.8863 10.501 15.648 14.938c11.524 8.8726 23.361 15.154 23.361 15.154l0.4707 0.25196 0.53516 0.0293s1.4318 0.0429 3.2363-0.5c1.8046-0.54288 4.2127-1.6638 6.8477-3.875 5.27-4.4224 11.417-13.124 16.182-30.277l-4.6875-1.3027c-4.5895 16.522-10.336 24.258-14.621 27.854-2.1424 1.7978-3.9272 2.5822-5.1211 2.9414-0.89748 0.26999-1.0181 0.22609-1.1777 0.22656-0.93108-0.50021-11.411-6.1598-22.059-14.357-5.5635-4.2834-10.998-9.1734-14.762-14.053-3.7634-4.8794-5.719-9.6092-5.1289-13.633 1.3256-9.0379 7.4284-14.641 15.229-13.869s18.265 8.4937 26.896 28.896c-2.9602-25.544-15.977-32.706-26.418-33.738z" color="#000000" color-rendering="auto" dominant-baseline="auto" image-rendering="auto" solid-color="#000000" stop-color="#000000" style="font-feature-settings:normal;font-variant-alternates:normal;font-variant-caps:normal;font-variant-east-asian:normal;font-variant-ligatures:normal;font-variant-numeric:normal;font-variant-position:normal;font-variation-settings:normal;inline-size:0;isolation:auto;mix-blend-mode:normal;shape-margin:0;shape-padding:0;text-decoration-color:#000000;text-decoration-line:none;text-decoration-style:solid;text-indent:0;text-orientation:mixed;text-transform:none;white-space:normal"/>
      <path transform="matrix(1.7822 -.27334 .27334 1.7822 -128.16 -84.007)" d="m113.51 108.96c-0.80839-0.0285-1.6076 0.11191-2.3184 0.36133-1.4215 0.49884-2.6746 1.3565-3.9121 2.4004-2.4749 2.0878-4.8836 5.0071-7.0996 8.0137-4.4319 6.0132-8.0117 12.408-8.0117 12.408l4.2441 2.3789s3.4883-6.2082 7.6836-11.9c2.0977-2.8461 4.3915-5.5546 6.3203-7.1816 0.96442-0.81354 1.8402-1.3362 2.3848-1.5273s0.56856-0.12672 0.64258-0.084c5.5204 3.1872 18.464 11.073 27.551 18.32 4.5436 3.6238 8.1139 7.2681 9.1504 9.3164 0.51823 1.0242 0.37868 1.1744 0.36914 1.1894-0.01 0.015-0.5949 0.58634-2.5312 0.8711-17.039 2.5058-36.42-4.833-36.42-4.833s17.819 12.485 37.129 9.6455c2.6072-0.38342 4.7278-1.183 5.9297-3.0762 1.2019-1.8931 0.77786-4.1886-0.13476-5.9922-1.8252-3.6071-5.7108-7.1368-10.459-10.924-9.4965-7.5741-22.479-15.458-28.15-18.732-0.74203-0.42841-1.5588-0.62576-2.3672-0.6543z" color="#000000" color-rendering="auto" dominant-baseline="auto" image-rendering="auto" solid-color="#000000" stop-color="#000000" style="font-feature-settings:normal;font-variant-alternates:normal;font-variant-caps:normal;font-variant-east-asian:normal;font-variant-ligatures:normal;font-variant-numeric:normal;font-variant-position:normal;font-variation-settings:normal;inline-size:0;isolation:auto;mix-blend-mode:normal;shape-margin:0;shape-padding:0;text-decoration-color:#000000;text-decoration-line:none;text-decoration-style:solid;text-indent:0;text-orientation:mixed;text-transform:none;white-space:normal"/>
      <path transform="matrix(1.7822 -.27334 .27334 1.7822 -128.16 -84.007)" d="m71.92 128.83s-1.5995 0.0611-3.3164 1.0527c-1.7169 0.99164-3.6111 2.9809-4.3203 6.5195a1.0325 1.0325 0 0 0 0.81055 1.2168 1.0325 1.0325 0 0 0 1.2148-0.81054c0.60385-3.0128 2.0405-4.3941 3.3262-5.1367 1.2857-0.74261 2.3594-0.77735 2.3594-0.77735a1.0325 1.0325 0 0 0 0.99414-1.0703 1.0325 1.0325 0 0 0-1.0684-0.99414z" color="#000000" color-rendering="auto" dominant-baseline="auto" image-rendering="auto" solid-color="#000000" stop-color="#000000" style="font-feature-settings:normal;font-variant-alternates:normal;font-variant-caps:normal;font-variant-east-asian:normal;font-variant-ligatures:normal;font-variant-numeric:normal;font-variant-position:normal;font-variation-settings:normal;inline-size:0;isolation:auto;mix-blend-mode:normal;shape-margin:0;shape-padding:0;text-decoration-color:#000000;text-decoration-line:none;text-decoration-style:solid;text-indent:0;text-orientation:mixed;text-transform:none;white-space:normal"/>
      <path transform="matrix(1.7822 -.27334 .27334 1.7822 -128.16 -84.007)" d="m76.229 133.69s-1.5995 0.0611-3.3164 1.0527c-1.7169 0.99164-3.6111 2.9828-4.3203 6.5215a1.0325 1.0325 0 0 0 0.81055 1.2148 1.0325 1.0325 0 0 0 1.2148-0.81055c0.60385-3.0128 2.0405-4.3941 3.3262-5.1367 1.2857-0.74261 2.3594-0.77734 2.3594-0.77734a1.0325 1.0325 0 0 0 0.99609-1.0703 1.0325 1.0325 0 0 0-1.0703-0.99414z" color="#000000" color-rendering="auto" dominant-baseline="auto" image-rendering="auto" solid-color="#000000" stop-color="#000000" style="font-feature-settings:normal;font-variant-alternates:normal;font-variant-caps:normal;font-variant-east-asian:normal;font-variant-ligatures:normal;font-variant-numeric:normal;font-variant-position:normal;font-variation-settings:normal;inline-size:0;isolation:auto;mix-blend-mode:normal;shape-margin:0;shape-padding:0;text-decoration-color:#000000;text-decoration-line:none;text-decoration-style:solid;text-indent:0;text-orientation:mixed;text-transform:none;white-space:normal"/>
      <path transform="matrix(1.7822 -.27334 .27334 1.7822 -128.16 -84.007)" d="m80.104 138.19s-1.6015 0.0611-3.3184 1.0527c-1.7169 0.99165-3.6091 2.9809-4.3184 6.5195a1.0325 1.0325 0 0 0 0.80859 1.2148 1.0325 1.0325 0 0 0 1.2168-0.80859c0.60385-3.0128 2.0405-4.3961 3.3262-5.1387 1.2857-0.74261 2.3594-0.77734 2.3594-0.77734a1.0325 1.0325 0 0 0 0.99414-1.0684 1.0325 1.0325 0 0 0-1.0684-0.99414z" color="#000000" color-rendering="auto" dominant-baseline="auto" image-rendering="auto" solid-color="#000000" stop-color="#000000" style="font-feature-settings:normal;font-variant-alternates:normal;font-variant-caps:normal;font-variant-east-asian:normal;font-variant-ligatures:normal;font-variant-numeric:normal;font-variant-position:normal;font-variation-settings:normal;inline-size:0;isolation:auto;mix-blend-mode:normal;shape-margin:0;shape-padding:0;text-decoration-color:#000000;text-decoration-line:none;text-decoration-style:solid;text-indent:0;text-orientation:mixed;text-transform:none;white-space:normal"/>
     </g>
    </g>
    <g transform="rotate(36.918 94.824 197.05)">
     <g fill="#fff">
      <path transform="matrix(1.3135 1.2352 -.60649 1.698 -128.16 -84.007)" d="m193.32 4.5174c0 16.933-7.4848 30.66-16.718 30.66-9.2329 1e-6 -16.718-13.727-16.718-30.66s1.6312-29.502 15.35-29.65c9.2727-0.10054 18.086 12.717 18.086 29.65z" stroke="#c7c768" stroke-linecap="round" stroke-width="2.4135"/>
      <ellipse transform="matrix(1.3328 -1.2143 1.6522 .72192 -128.16 -84.007)" cx="-47.828" cy="197.19" rx="12.848" ry="26.066" stroke-opacity="0"/>
      <path transform="matrix(1.222,-1.3258,1.2886,1.2612,-128.16,-84.007)" d="m-3.3092 163.67c1.2e-6 19.298-11.424 40.782-20.217 35.416-3.1905-1.9469-13.629-29.737-15.263-35.565-5.2501-18.728 6.9151-34.793 17.078-34.793s18.402 15.644 18.402 34.942z" stroke-opacity="0"/>
     </g>
     <g shape-rendering="auto">
      <path transform="matrix(1.7822 -.27334 .27334 1.7822 -128.16 -84.007)" d="m72.369 112.07c-10.441-1.0326-18.905 6.9966-20.52 18.004-0.87985 5.999 1.9084 11.892 6.0879 17.311s9.8863 10.501 15.648 14.938c11.524 8.8726 23.361 15.154 23.361 15.154l0.4707 0.25196 0.53516 0.0293s1.4318 0.0429 3.2363-0.5c1.8046-0.54288 4.2127-1.6638 6.8477-3.875 5.27-4.4224 11.417-13.124 16.182-30.277l-4.6875-1.3027c-4.5895 16.522-10.336 24.258-14.621 27.854-2.1424 1.7978-3.9272 2.5822-5.1211 2.9414-0.89748 0.26999-1.0181 0.22609-1.1777 0.22656-0.93108-0.50021-11.411-6.1598-22.059-14.357-5.5635-4.2834-10.998-9.1734-14.762-14.053-3.7634-4.8794-5.719-9.6092-5.1289-13.633 1.3256-9.0379 7.4284-14.641 15.229-13.869s18.265 8.4937 26.896 28.896c-2.9602-25.544-15.977-32.706-26.418-33.738z" color="#000000" color-rendering="auto" dominant-baseline="auto" image-rendering="auto" solid-color="#000000" stop-color="#000000" style="font-feature-settings:normal;font-variant-alternates:normal;font-variant-caps:normal;font-variant-east-asian:normal;font-variant-ligatures:normal;font-variant-numeric:normal;font-variant-position:normal;font-variation-settings:normal;inline-size:0;isolation:auto;mix-blend-mode:normal;shape-margin:0;shape-padding:0;text-decoration-color:#000000;text-decoration-line:none;text-decoration-style:solid;text-indent:0;text-orientation:mixed;text-transform:none;white-space:normal"/>
      <path transform="matrix(1.7822 -.27334 .27334 1.7822 -128.16 -84.007)" d="m113.51 108.96c-0.80839-0.0285-1.6076 0.11191-2.3184 0.36133-1.4215 0.49884-2.6746 1.3565-3.9121 2.4004-2.4749 2.0878-4.8836 5.0071-7.0996 8.0137-4.4319 6.0132-8.0117 12.408-8.0117 12.408l4.2441 2.3789s3.4883-6.2082 7.6836-11.9c2.0977-2.8461 4.3915-5.5546 6.3203-7.1816 0.96442-0.81354 1.8402-1.3362 2.3848-1.5273s0.56856-0.12672 0.64258-0.084c5.5204 3.1872 18.464 11.073 27.551 18.32 4.5436 3.6238 8.1139 7.2681 9.1504 9.3164 0.51823 1.0242 0.37868 1.1744 0.36914 1.1894-0.01 0.015-0.5949 0.58634-2.5312 0.8711-17.039 2.5058-36.42-4.833-36.42-4.833s17.819 12.485 37.129 9.6455c2.6072-0.38342 4.7278-1.183 5.9297-3.0762 1.2019-1.8931 0.77786-4.1886-0.13476-5.9922-1.8252-3.6071-5.7108-7.1368-10.459-10.924-9.4965-7.5741-22.479-15.458-28.15-18.732-0.74203-0.42841-1.5588-0.62576-2.3672-0.6543z" color="#000000" color-rendering="auto" dominant-baseline="auto" image-rendering="auto" solid-color="#000000" stop-color="#000000" style="font-feature-settings:normal;font-variant-alternates:normal;font-variant-caps:normal;font-variant-east-asian:normal;font-variant-ligatures:normal;font-variant-numeric:normal;font-variant-position:normal;font-variation-settings:normal;inline-size:0;isolation:auto;mix-blend-mode:normal;shape-margin:0;shape-padding:0;text-decoration-color:#000000;text-decoration-line:none;text-decoration-style:solid;text-indent:0;text-orientation:mixed;text-transform:none;white-space:normal"/>
      <path transform="matrix(1.7822 -.27334 .27334 1.7822 -128.16 -84.007)" d="m71.92 128.83s-1.5995 0.0611-3.3164 1.0527c-1.7169 0.99164-3.6111 2.9809-4.3203 6.5195a1.0325 1.0325 0 0 0 0.81055 1.2168 1.0325 1.0325 0 0 0 1.2148-0.81054c0.60385-3.0128 2.0405-4.3941 3.3262-5.1367 1.2857-0.74261 2.3594-0.77735 2.3594-0.77735a1.0325 1.0325 0 0 0 0.99414-1.0703 1.0325 1.0325 0 0 0-1.0684-0.99414z" color="#000000" color-rendering="auto" dominant-baseline="auto" image-rendering="auto" solid-color="#000000" stop-color="#000000" style="font-feature-settings:normal;font-variant-alternates:normal;font-variant-caps:normal;font-variant-east-asian:normal;font-variant-ligatures:normal;font-variant-numeric:normal;font-variant-position:normal;font-variation-settings:normal;inline-size:0;isolation:auto;mix-blend-mode:normal;shape-margin:0;shape-padding:0;text-decoration-color:#000000;text-decoration-line:none;text-decoration-style:solid;text-indent:0;text-orientation:mixed;text-transform:none;white-space:normal"/>
      <path transform="matrix(1.7822 -.27334 .27334 1.7822 -128.16 -84.007)" d="m76.229 133.69s-1.5995 0.0611-3.3164 1.0527c-1.7169 0.99164-3.6111 2.9828-4.3203 6.5215a1.0325 1.0325 0 0 0 0.81055 1.2148 1.0325 1.0325 0 0 0 1.2148-0.81055c0.60385-3.0128 2.0405-4.3941 3.3262-5.1367 1.2857-0.74261 2.3594-0.77734 2.3594-0.77734a1.0325 1.0325 0 0 0 0.99609-1.0703 1.0325 1.0325 0 0 0-1.0703-0.99414z" color="#000000" color-rendering="auto" dominant-baseline="auto" image-rendering="auto" solid-color="#000000" stop-color="#000000" style="font-feature-settings:normal;font-variant-alternates:normal;font-variant-caps:normal;font-variant-east-asian:normal;font-variant-ligatures:normal;font-variant-numeric:normal;font-variant-position:normal;font-variation-settings:normal;inline-size:0;isolation:auto;mix-blend-mode:normal;shape-margin:0;shape-padding:0;text-decoration-color:#000000;text-decoration-line:none;text-decoration-style:solid;text-indent:0;text-orientation:mixed;text-transform:none;white-space:normal"/>
      <path transform="matrix(1.7822 -.27334 .27334 1.7822 -128.16 -84.007)" d="m80.104 138.19s-1.6015 0.0611-3.3184 1.0527c-1.7169 0.99165-3.6091 2.9809-4.3184 6.5195a1.0325 1.0325 0 0 0 0.80859 1.2148 1.0325 1.0325 0 0 0 1.2168-0.80859c0.60385-3.0128 2.0405-4.3961 3.3262-5.1387 1.2857-0.74261 2.3594-0.77734 2.3594-0.77734a1.0325 1.0325 0 0 0 0.99414-1.0684 1.0325 1.0325 0 0 0-1.0684-0.99414z" color="#000000" color-rendering="auto" dominant-baseline="auto" image-rendering="auto" solid-color="#000000" stop-color="#000000" style="font-feature-settings:normal;font-variant-alternates:normal;font-variant-caps:normal;font-variant-east-asian:normal;font-variant-ligatures:normal;font-variant-numeric:normal;font-variant-position:normal;font-variation-settings:normal;inline-size:0;isolation:auto;mix-blend-mode:normal;shape-margin:0;shape-padding:0;text-decoration-color:#000000;text-decoration-line:none;text-decoration-style:solid;text-indent:0;text-orientation:mixed;text-transform:none;white-space:normal"/>
     </g>
    </g>
    <g transform="rotate(79.162 95.08 199.14)">
     <g fill="#fff">
      <path transform="matrix(1.3135 1.2352 -.60649 1.698 -128.16 -84.007)" d="m193.32 4.5174c0 16.933-7.4848 30.66-16.718 30.66-9.2329 1e-6 -16.718-13.727-16.718-30.66s1.6312-29.502 15.35-29.65c9.2727-0.10054 18.086 12.717 18.086 29.65z" stroke="#c7c768" stroke-linecap="round" stroke-width="2.4135"/>
      <ellipse transform="matrix(1.3328 -1.2143 1.6522 .72192 -128.16 -84.007)" cx="-47.828" cy="197.19" rx="12.848" ry="26.066" stroke-opacity="0"/>
      <path transform="matrix(1.222,-1.3258,1.2886,1.2612,-128.16,-84.007)" d="m-3.3092 163.67c1.2e-6 19.298-11.424 40.782-20.217 35.416-3.1905-1.9469-13.629-29.737-15.263-35.565-5.2501-18.728 6.9151-34.793 17.078-34.793s18.402 15.644 18.402 34.942z" stroke-opacity="0"/>
     </g>
     <g shape-rendering="auto">
      <path transform="matrix(1.7822 -.27334 .27334 1.7822 -128.16 -84.007)" d="m72.369 112.07c-10.441-1.0326-18.905 6.9966-20.52 18.004-0.87985 5.999 1.9084 11.892 6.0879 17.311s9.8863 10.501 15.648 14.938c11.524 8.8726 23.361 15.154 23.361 15.154l0.4707 0.25196 0.53516 0.0293s1.4318 0.0429 3.2363-0.5c1.8046-0.54288 4.2127-1.6638 6.8477-3.875 5.27-4.4224 11.417-13.124 16.182-30.277l-4.6875-1.3027c-4.5895 16.522-10.336 24.258-14.621 27.854-2.1424 1.7978-3.9272 2.5822-5.1211 2.9414-0.89748 0.26999-1.0181 0.22609-1.1777 0.22656-0.93108-0.50021-11.411-6.1598-22.059-14.357-5.5635-4.2834-10.998-9.1734-14.762-14.053-3.7634-4.8794-5.719-9.6092-5.1289-13.633 1.3256-9.0379 7.4284-14.641 15.229-13.869s18.265 8.4937 26.896 28.896c-2.9602-25.544-15.977-32.706-26.418-33.738z" color="#000000" color-rendering="auto" dominant-baseline="auto" image-rendering="auto" solid-color="#000000" stop-color="#000000" style="font-feature-settings:normal;font-variant-alternates:normal;font-variant-caps:normal;font-variant-east-asian:normal;font-variant-ligatures:normal;font-variant-numeric:normal;font-variant-position:normal;font-variation-settings:normal;inline-size:0;isolation:auto;mix-blend-mode:normal;shape-margin:0;shape-padding:0;text-decoration-color:#000000;text-decoration-line:none;text-decoration-style:solid;text-indent:0;text-orientation:mixed;text-transform:none;white-space:normal"/>
      <path transform="matrix(1.7822 -.27334 .27334 1.7822 -128.16 -84.007)" d="m113.51 108.96c-0.80839-0.0285-1.6076 0.11191-2.3184 0.36133-1.4215 0.49884-2.6746 1.3565-3.9121 2.4004-2.4749 2.0878-4.8836 5.0071-7.0996 8.0137-4.4319 6.0132-8.0117 12.408-8.0117 12.408l4.2441 2.3789s3.4883-6.2082 7.6836-11.9c2.0977-2.8461 4.3915-5.5546 6.3203-7.1816 0.96442-0.81354 1.8402-1.3362 2.3848-1.5273s0.56856-0.12672 0.64258-0.084c5.5204 3.1872 18.464 11.073 27.551 18.32 4.5436 3.6238 8.1139 7.2681 9.1504 9.3164 0.51823 1.0242 0.37868 1.1744 0.36914 1.1894-0.01 0.015-0.5949 0.58634-2.5312 0.8711-17.039 2.5058-36.42-4.833-36.42-4.833s17.819 12.485 37.129 9.6455c2.6072-0.38342 4.7278-1.183 5.9297-3.0762 1.2019-1.8931 0.77786-4.1886-0.13476-5.9922-1.8252-3.6071-5.7108-7.1368-10.459-10.924-9.4965-7.5741-22.479-15.458-28.15-18.732-0.74203-0.42841-1.5588-0.62576-2.3672-0.6543z" color="#000000" color-rendering="auto" dominant-baseline="auto" image-rendering="auto" solid-color="#000000" stop-color="#000000" style="font-feature-settings:normal;font-variant-alternates:normal;font-variant-caps:normal;font-variant-east-asian:normal;font-variant-ligatures:normal;font-variant-numeric:normal;font-variant-position:normal;font-variation-settings:normal;inline-size:0;isolation:auto;mix-blend-mode:normal;shape-margin:0;shape-padding:0;text-decoration-color:#000000;text-decoration-line:none;text-decoration-style:solid;text-indent:0;text-orientation:mixed;text-transform:none;white-space:normal"/>
      <path transform="matrix(1.7822 -.27334 .27334 1.7822 -128.16 -84.007)" d="m71.92 128.83s-1.5995 0.0611-3.3164 1.0527c-1.7169 0.99164-3.6111 2.9809-4.3203 6.5195a1.0325 1.0325 0 0 0 0.81055 1.2168 1.0325 1.0325 0 0 0 1.2148-0.81054c0.60385-3.0128 2.0405-4.3941 3.3262-5.1367 1.2857-0.74261 2.3594-0.77735 2.3594-0.77735a1.0325 1.0325 0 0 0 0.99414-1.0703 1.0325 1.0325 0 0 0-1.0684-0.99414z" color="#000000" color-rendering="auto" dominant-baseline="auto" image-rendering="auto" solid-color="#000000" stop-color="#000000" style="font-feature-settings:normal;font-variant-alternates:normal;font-variant-caps:normal;font-variant-east-asian:normal;font-variant-ligatures:normal;font-variant-numeric:normal;font-variant-position:normal;font-variation-settings:normal;inline-size:0;isolation:auto;mix-blend-mode:normal;shape-margin:0;shape-padding:0;text-decoration-color:#000000;text-decoration-line:none;text-decoration-style:solid;text-indent:0;text-orientation:mixed;text-transform:none;white-space:normal"/>
      <path transform="matrix(1.7822 -.27334 .27334 1.7822 -128.16 -84.007)" d="m76.229 133.69s-1.5995 0.0611-3.3164 1.0527c-1.7169 0.99164-3.6111 2.9828-4.3203 6.5215a1.0325 1.0325 0 0 0 0.81055 1.2148 1.0325 1.0325 0 0 0 1.2148-0.81055c0.60385-3.0128 2.0405-4.3941 3.3262-5.1367 1.2857-0.74261 2.3594-0.77734 2.3594-0.77734a1.0325 1.0325 0 0 0 0.99609-1.0703 1.0325 1.0325 0 0 0-1.0703-0.99414z" color="#000000" color-rendering="auto" dominant-baseline="auto" image-rendering="auto" solid-color="#000000" stop-color="#000000" style="font-feature-settings:normal;font-variant-alternates:normal;font-variant-caps:normal;font-variant-east-asian:normal;font-variant-ligatures:normal;font-variant-numeric:normal;font-variant-position:normal;font-variation-settings:normal;inline-size:0;isolation:auto;mix-blend-mode:normal;shape-margin:0;shape-padding:0;text-decoration-color:#000000;text-decoration-line:none;text-decoration-style:solid;text-indent:0;text-orientation:mixed;text-transform:none;white-space:normal"/>
      <path transform="matrix(1.7822 -.27334 .27334 1.7822 -128.16 -84.007)" d="m80.104 138.19s-1.6015 0.0611-3.3184 1.0527c-1.7169 0.99165-3.6091 2.9809-4.3184 6.5195a1.0325 1.0325 0 0 0 0.80859 1.2148 1.0325 1.0325 0 0 0 1.2168-0.80859c0.60385-3.0128 2.0405-4.3961 3.3262-5.1387 1.2857-0.74261 2.3594-0.77734 2.3594-0.77734a1.0325 1.0325 0 0 0 0.99414-1.0684 1.0325 1.0325 0 0 0-1.0684-0.99414z" color="#000000" color-rendering="auto" dominant-baseline="auto" image-rendering="auto" solid-color="#000000" stop-color="#000000" style="font-feature-settings:normal;font-variant-alternates:normal;font-variant-caps:normal;font-variant-east-asian:normal;font-variant-ligatures:normal;font-variant-numeric:normal;font-variant-position:normal;font-variation-settings:normal;inline-size:0;isolation:auto;mix-blend-mode:normal;shape-margin:0;shape-padding:0;text-decoration-color:#000000;text-decoration-line:none;text-decoration-style:solid;text-indent:0;text-orientation:mixed;text-transform:none;white-space:normal"/>
     </g>
    </g>
   </g>
  </g>
  <g transform="translate(1.3814 -71.833)">
   <g transform="rotate(.80037 93.812 142.6)">
    <g fill="#fff">
     <path transform="matrix(1.3135 1.2352 -.60649 1.698 -128.16 -84.007)" d="m193.32 4.5174c0 16.933-7.4848 30.66-16.718 30.66-9.2329 1e-6 -16.718-13.727-16.718-30.66s1.6312-29.502 15.35-29.65c9.2727-0.10054 18.086 12.717 18.086 29.65z" stroke="#c7c768" stroke-linecap="round" stroke-width="2.4135"/>
     <ellipse transform="matrix(1.3328 -1.2143 1.6522 .72192 -128.16 -84.007)" cx="-47.828" cy="197.19" rx="12.848" ry="26.066" stroke-opacity="0"/>
     <path transform="matrix(1.222,-1.3258,1.2886,1.2612,-128.16,-84.007)" d="m-3.3092 163.67c1.2e-6 19.298-11.424 40.782-20.217 35.416-3.1905-1.9469-13.629-29.737-15.263-35.565-5.2501-18.728 6.9151-34.793 17.078-34.793s18.402 15.644 18.402 34.942z" stroke-opacity="0"/>
    </g>
    <g shape-rendering="auto">
     <path transform="matrix(1.7822 -.27334 .27334 1.7822 -128.16 -84.007)" d="m72.369 112.07c-10.441-1.0326-18.905 6.9966-20.52 18.004-0.87985 5.999 1.9084 11.892 6.0879 17.311s9.8863 10.501 15.648 14.938c11.524 8.8726 23.361 15.154 23.361 15.154l0.4707 0.25196 0.53516 0.0293s1.4318 0.0429 3.2363-0.5c1.8046-0.54288 4.2127-1.6638 6.8477-3.875 5.27-4.4224 11.417-13.124 16.182-30.277l-4.6875-1.3027c-4.5895 16.522-10.336 24.258-14.621 27.854-2.1424 1.7978-3.9272 2.5822-5.1211 2.9414-0.89748 0.26999-1.0181 0.22609-1.1777 0.22656-0.93108-0.50021-11.411-6.1598-22.059-14.357-5.5635-4.2834-10.998-9.1734-14.762-14.053-3.7634-4.8794-5.719-9.6092-5.1289-13.633 1.3256-9.0379 7.4284-14.641 15.229-13.869s18.265 8.4937 26.896 28.896c-2.9602-25.544-15.977-32.706-26.418-33.738z" color="#000000" color-rendering="auto" dominant-baseline="auto" image-rendering="auto" solid-color="#000000" stop-color="#000000" style="font-feature-settings:normal;font-variant-alternates:normal;font-variant-caps:normal;font-variant-east-asian:normal;font-variant-ligatures:normal;font-variant-numeric:normal;font-variant-position:normal;font-variation-settings:normal;inline-size:0;isolation:auto;mix-blend-mode:normal;shape-margin:0;shape-padding:0;text-decoration-color:#000000;text-decoration-line:none;text-decoration-style:solid;text-indent:0;text-orientation:mixed;text-transform:none;white-space:normal"/>
     <path transform="matrix(1.7822 -.27334 .27334 1.7822 -128.16 -84.007)" d="m113.51 108.96c-0.80839-0.0285-1.6076 0.11191-2.3184 0.36133-1.4215 0.49884-2.6746 1.3565-3.9121 2.4004-2.4749 2.0878-4.8836 5.0071-7.0996 8.0137-4.4319 6.0132-8.0117 12.408-8.0117 12.408l4.2441 2.3789s3.4883-6.2082 7.6836-11.9c2.0977-2.8461 4.3915-5.5546 6.3203-7.1816 0.96442-0.81354 1.8402-1.3362 2.3848-1.5273s0.56856-0.12672 0.64258-0.084c5.5204 3.1872 18.464 11.073 27.551 18.32 4.5436 3.6238 8.1139 7.2681 9.1504 9.3164 0.51823 1.0242 0.37868 1.1744 0.36914 1.1894-0.01 0.015-0.5949 0.58634-2.5312 0.8711-17.039 2.5058-36.42-4.833-36.42-4.833s17.819 12.485 37.129 9.6455c2.6072-0.38342 4.7278-1.183 5.9297-3.0762 1.2019-1.8931 0.77786-4.1886-0.13476-5.9922-1.8252-3.6071-5.7108-7.1368-10.459-10.924-9.4965-7.5741-22.479-15.458-28.15-18.732-0.74203-0.42841-1.5588-0.62576-2.3672-0.6543z" color="#000000" color-rendering="auto" dominant-baseline="auto" image-rendering="auto" solid-color="#000000" stop-color="#000000" style="font-feature-settings:normal;font-variant-alternates:normal;font-variant-caps:normal;font-variant-east-asian:normal;font-variant-ligatures:normal;font-variant-numeric:normal;font-variant-position:normal;font-variation-settings:normal;inline-size:0;isolation:auto;mix-blend-mode:normal;shape-margin:0;shape-padding:0;text-decoration-color:#000000;text-decoration-line:none;text-decoration-style:solid;text-indent:0;text-orientation:mixed;text-transform:none;white-space:normal"/>
     <path transform="matrix(1.7822 -.27334 .27334 1.7822 -128.16 -84.007)" d="m71.92 128.83s-1.5995 0.0611-3.3164 1.0527c-1.7169 0.99164-3.6111 2.9809-4.3203 6.5195a1.0325 1.0325 0 0 0 0.81055 1.2168 1.0325 1.0325 0 0 0 1.2148-0.81054c0.60385-3.0128 2.0405-4.3941 3.3262-5.1367 1.2857-0.74261 2.3594-0.77735 2.3594-0.77735a1.0325 1.0325 0 0 0 0.99414-1.0703 1.0325 1.0325 0 0 0-1.0684-0.99414z" color="#000000" color-rendering="auto" dominant-baseline="auto" image-rendering="auto" solid-color="#000000" stop-color="#000000" style="font-feature-settings:normal;font-variant-alternates:normal;font-variant-caps:normal;font-variant-east-asian:normal;font-variant-ligatures:normal;font-variant-numeric:normal;font-variant-position:normal;font-variation-settings:normal;inline-size:0;isolation:auto;mix-blend-mode:normal;shape-margin:0;shape-padding:0;text-decoration-color:#000000;text-decoration-line:none;text-decoration-style:solid;text-indent:0;text-orientation:mixed;text-transform:none;white-space:normal"/>
     <path transform="matrix(1.7822 -.27334 .27334 1.7822 -128.16 -84.007)" d="m76.229 133.69s-1.5995 0.0611-3.3164 1.0527c-1.7169 0.99164-3.6111 2.9828-4.3203 6.5215a1.0325 1.0325 0 0 0 0.81055 1.2148 1.0325 1.0325 0 0 0 1.2148-0.81055c0.60385-3.0128 2.0405-4.3941 3.3262-5.1367 1.2857-0.74261 2.3594-0.77734 2.3594-0.77734a1.0325 1.0325 0 0 0 0.99609-1.0703 1.0325 1.0325 0 0 0-1.0703-0.99414z" color="#000000" color-rendering="auto" dominant-baseline="auto" image-rendering="auto" solid-color="#000000" stop-color="#000000" style="font-feature-settings:normal;font-variant-alternates:normal;font-variant-caps:normal;font-variant-east-asian:normal;font-variant-ligatures:normal;font-variant-numeric:normal;font-variant-position:normal;font-variation-settings:normal;inline-size:0;isolation:auto;mix-blend-mode:normal;shape-margin:0;shape-padding:0;text-decoration-color:#000000;text-decoration-line:none;text-decoration-style:solid;text-indent:0;text-orientation:mixed;text-transform:none;white-space:normal"/>
     <path transform="matrix(1.7822 -.27334 .27334 1.7822 -128.16 -84.007)" d="m80.104 138.19s-1.6015 0.0611-3.3184 1.0527c-1.7169 0.99165-3.6091 2.9809-4.3184 6.5195a1.0325 1.0325 0 0 0 0.80859 1.2148 1.0325 1.0325 0 0 0 1.2168-0.80859c0.60385-3.0128 2.0405-4.3961 3.3262-5.1387 1.2857-0.74261 2.3594-0.77734 2.3594-0.77734a1.0325 1.0325 0 0 0 0.99414-1.0684 1.0325 1.0325 0 0 0-1.0684-0.99414z" color="#000000" color-rendering="auto" dominant-baseline="auto" image-rendering="auto" solid-color="#000000" stop-color="#000000" style="font-feature-settings:normal;font-variant-alternates:normal;font-variant-caps:normal;font-variant-east-asian:normal;font-variant-ligatures:normal;font-variant-numeric:normal;font-variant-position:normal;font-variation-settings:normal;inline-size:0;isolation:auto;mix-blend-mode:normal;shape-margin:0;shape-padding:0;text-decoration-color:#000000;text-decoration-line:none;text-decoration-style:solid;text-indent:0;text-orientation:mixed;text-transform:none;white-space:normal"/>
    </g>
   </g>
   <g transform="rotate(36.918 94.824 197.05)">
    <g fill="#fff">
     <path transform="matrix(1.3135 1.2352 -.60649 1.698 -128.16 -84.007)" d="m193.32 4.5174c0 16.933-7.4848 30.66-16.718 30.66-9.2329 1e-6 -16.718-13.727-16.718-30.66s1.6312-29.502 15.35-29.65c9.2727-0.10054 18.086 12.717 18.086 29.65z" stroke="#c7c768" stroke-linecap="round" stroke-width="2.4135"/>
     <ellipse transform="matrix(1.3328 -1.2143 1.6522 .72192 -128.16 -84.007)" cx="-47.828" cy="197.19" rx="12.848" ry="26.066" stroke-opacity="0"/>
     <path transform="matrix(1.222,-1.3258,1.2886,1.2612,-128.16,-84.007)" d="m-3.3092 163.67c1.2e-6 19.298-11.424 40.782-20.217 35.416-3.1905-1.9469-13.629-29.737-15.263-35.565-5.2501-18.728 6.9151-34.793 17.078-34.793s18.402 15.644 18.402 34.942z" stroke-opacity="0"/>
    </g>
    <g shape-rendering="auto">
     <path transform="matrix(1.7822 -.27334 .27334 1.7822 -128.16 -84.007)" d="m72.369 112.07c-10.441-1.0326-18.905 6.9966-20.52 18.004-0.87985 5.999 1.9084 11.892 6.0879 17.311s9.8863 10.501 15.648 14.938c11.524 8.8726 23.361 15.154 23.361 15.154l0.4707 0.25196 0.53516 0.0293s1.4318 0.0429 3.2363-0.5c1.8046-0.54288 4.2127-1.6638 6.8477-3.875 5.27-4.4224 11.417-13.124 16.182-30.277l-4.6875-1.3027c-4.5895 16.522-10.336 24.258-14.621 27.854-2.1424 1.7978-3.9272 2.5822-5.1211 2.9414-0.89748 0.26999-1.0181 0.22609-1.1777 0.22656-0.93108-0.50021-11.411-6.1598-22.059-14.357-5.5635-4.2834-10.998-9.1734-14.762-14.053-3.7634-4.8794-5.719-9.6092-5.1289-13.633 1.3256-9.0379 7.4284-14.641 15.229-13.869s18.265 8.4937 26.896 28.896c-2.9602-25.544-15.977-32.706-26.418-33.738z" color="#000000" color-rendering="auto" dominant-baseline="auto" image-rendering="auto" solid-color="#000000" stop-color="#000000" style="font-feature-settings:normal;font-variant-alternates:normal;font-variant-caps:normal;font-variant-east-asian:normal;font-variant-ligatures:normal;font-variant-numeric:normal;font-variant-position:normal;font-variation-settings:normal;inline-size:0;isolation:auto;mix-blend-mode:normal;shape-margin:0;shape-padding:0;text-decoration-color:#000000;text-decoration-line:none;text-decoration-style:solid;text-indent:0;text-orientation:mixed;text-transform:none;white-space:normal"/>
     <path transform="matrix(1.7822 -.27334 .27334 1.7822 -128.16 -84.007)" d="m113.51 108.96c-0.80839-0.0285-1.6076 0.11191-2.3184 0.36133-1.4215 0.49884-2.6746 1.3565-3.9121 2.4004-2.4749 2.0878-4.8836 5.0071-7.0996 8.0137-4.4319 6.0132-8.0117 12.408-8.0117 12.408l4.2441 2.3789s3.4883-6.2082 7.6836-11.9c2.0977-2.8461 4.3915-5.5546 6.3203-7.1816 0.96442-0.81354 1.8402-1.3362 2.3848-1.5273s0.56856-0.12672 0.64258-0.084c5.5204 3.1872 18.464 11.073 27.551 18.32 4.5436 3.6238 8.1139 7.2681 9.1504 9.3164 0.51823 1.0242 0.37868 1.1744 0.36914 1.1894-0.01 0.015-0.5949 0.58634-2.5312 0.8711-17.039 2.5058-36.42-4.833-36.42-4.833s17.819 12.485 37.129 9.6455c2.6072-0.38342 4.7278-1.183 5.9297-3.0762 1.2019-1.8931 0.77786-4.1886-0.13476-5.9922-1.8252-3.6071-5.7108-7.1368-10.459-10.924-9.4965-7.5741-22.479-15.458-28.15-18.732-0.74203-0.42841-1.5588-0.62576-2.3672-0.6543z" color="#000000" color-rendering="auto" dominant-baseline="auto" image-rendering="auto" solid-color="#000000" stop-color="#000000" style="font-feature-settings:normal;font-variant-alternates:normal;font-variant-caps:normal;font-variant-east-asian:normal;font-variant-ligatures:normal;font-variant-numeric:normal;font-variant-position:normal;font-variation-settings:normal;inline-size:0;isolation:auto;mix-blend-mode:normal;shape-margin:0;shape-padding:0;text-decoration-color:#000000;text-decoration-line:none;text-decoration-style:solid;text-indent:0;text-orientation:mixed;text-transform:none;white-space:normal"/>
     <path transform="matrix(1.7822 -.27334 .27334 1.7822 -128.16 -84.007)" d="m71.92 128.83s-1.5995 0.0611-3.3164 1.0527c-1.7169 0.99164-3.6111 2.9809-4.3203 6.5195a1.0325 1.0325 0 0 0 0.81055 1.2168 1.0325 1.0325 0 0 0 1.2148-0.81054c0.60385-3.0128 2.0405-4.3941 3.3262-5.1367 1.2857-0.74261 2.3594-0.77735 2.3594-0.77735a1.0325 1.0325 0 0 0 0.99414-1.0703 1.0325 1.0325 0 0 0-1.0684-0.99414z" color="#000000" color-rendering="auto" dominant-baseline="auto" image-rendering="auto" solid-color="#000000" stop-color="#000000" style="font-feature-settings:normal;font-variant-alternates:normal;font-variant-caps:normal;font-variant-east-asian:normal;font-variant-ligatures:normal;font-variant-numeric:normal;font-variant-position:normal;font-variation-settings:normal;inline-size:0;isolation:auto;mix-blend-mode:normal;shape-margin:0;shape-padding:0;text-decoration-color:#000000;text-decoration-line:none;text-decoration-style:solid;text-indent:0;text-orientation:mixed;text-transform:none;white-space:normal"/>
     <path transform="matrix(1.7822 -.27334 .27334 1.7822 -128.16 -84.007)" d="m76.229 133.69s-1.5995 0.0611-3.3164 1.0527c-1.7169 0.99164-3.6111 2.9828-4.3203 6.5215a1.0325 1.0325 0 0 0 0.81055 1.2148 1.0325 1.0325 0 0 0 1.2148-0.81055c0.60385-3.0128 2.0405-4.3941 3.3262-5.1367 1.2857-0.74261 2.3594-0.77734 2.3594-0.77734a1.0325 1.0325 0 0 0 0.99609-1.0703 1.0325 1.0325 0 0 0-1.0703-0.99414z" color="#000000" color-rendering="auto" dominant-baseline="auto" image-rendering="auto" solid-color="#000000" stop-color="#000000" style="font-feature-settings:normal;font-variant-alternates:normal;font-variant-caps:normal;font-variant-east-asian:normal;font-variant-ligatures:normal;font-variant-numeric:normal;font-variant-position:normal;font-variation-settings:normal;inline-size:0;isolation:auto;mix-blend-mode:normal;shape-margin:0;shape-padding:0;text-decoration-color:#000000;text-decoration-line:none;text-decoration-style:solid;text-indent:0;text-orientation:mixed;text-transform:none;white-space:normal"/>
     <path transform="matrix(1.7822 -.27334 .27334 1.7822 -128.16 -84.007)" d="m80.104 138.19s-1.6015 0.0611-3.3184 1.0527c-1.7169 0.99165-3.6091 2.9809-4.3184 6.5195a1.0325 1.0325 0 0 0 0.80859 1.2148 1.0325 1.0325 0 0 0 1.2168-0.80859c0.60385-3.0128 2.0405-4.3961 3.3262-5.1387 1.2857-0.74261 2.3594-0.77734 2.3594-0.77734a1.0325 1.0325 0 0 0 0.99414-1.0684 1.0325 1.0325 0 0 0-1.0684-0.99414z" color="#000000" color-rendering="auto" dominant-baseline="auto" image-rendering="auto" solid-color="#000000" stop-color="#000000" style="font-feature-settings:normal;font-variant-alternates:normal;font-variant-caps:normal;font-variant-east-asian:normal;font-variant-ligatures:normal;font-variant-numeric:normal;font-variant-position:normal;font-variation-settings:normal;inline-size:0;isolation:auto;mix-blend-mode:normal;shape-margin:0;shape-padding:0;text-decoration-color:#000000;text-decoration-line:none;text-decoration-style:solid;text-indent:0;text-orientation:mixed;text-transform:none;white-space:normal"/>
    </g>
   </g>
   <g transform="rotate(79.162 95.08 199.14)">
    <g fill="#fff">
     <path transform="matrix(1.3135 1.2352 -.60649 1.698 -128.16 -84.007)" d="m193.32 4.5174c0 16.933-7.4848 30.66-16.718 30.66-9.2329 1e-6 -16.718-13.727-16.718-30.66s1.6312-29.502 15.35-29.65c9.2727-0.10054 18.086 12.717 18.086 29.65z" stroke="#c7c768" stroke-linecap="round" stroke-width="2.4135"/>
     <ellipse transform="matrix(1.3328 -1.2143 1.6522 .72192 -128.16 -84.007)" cx="-47.828" cy="197.19" rx="12.848" ry="26.066" stroke-opacity="0"/>
     <path transform="matrix(1.222,-1.3258,1.2886,1.2612,-128.16,-84.007)" d="m-3.3092 163.67c1.2e-6 19.298-11.424 40.782-20.217 35.416-3.1905-1.9469-13.629-29.737-15.263-35.565-5.2501-18.728 6.9151-34.793 17.078-34.793s18.402 15.644 18.402 34.942z" stroke-opacity="0"/>
    </g>
    <g shape-rendering="auto">
     <path transform="matrix(1.7822 -.27334 .27334 1.7822 -128.16 -84.007)" d="m72.369 112.07c-10.441-1.0326-18.905 6.9966-20.52 18.004-0.87985 5.999 1.9084 11.892 6.0879 17.311s9.8863 10.501 15.648 14.938c11.524 8.8726 23.361 15.154 23.361 15.154l0.4707 0.25196 0.53516 0.0293s1.4318 0.0429 3.2363-0.5c1.8046-0.54288 4.2127-1.6638 6.8477-3.875 5.27-4.4224 11.417-13.124 16.182-30.277l-4.6875-1.3027c-4.5895 16.522-10.336 24.258-14.621 27.854-2.1424 1.7978-3.9272 2.5822-5.1211 2.9414-0.89748 0.26999-1.0181 0.22609-1.1777 0.22656-0.93108-0.50021-11.411-6.1598-22.059-14.357-5.5635-4.2834-10.998-9.1734-14.762-14.053-3.7634-4.8794-5.719-9.6092-5.1289-13.633 1.3256-9.0379 7.4284-14.641 15.229-13.869s18.265 8.4937 26.896 28.896c-2.9602-25.544-15.977-32.706-26.418-33.738z" color="#000000" color-rendering="auto" dominant-baseline="auto" image-rendering="auto" solid-color="#000000" stop-color="#000000" style="font-feature-settings:normal;font-variant-alternates:normal;font-variant-caps:normal;font-variant-east-asian:normal;font-variant-ligatures:normal;font-variant-numeric:normal;font-variant-position:normal;font-variation-settings:normal;inline-size:0;isolation:auto;mix-blend-mode:normal;shape-margin:0;shape-padding:0;text-decoration-color:#000000;text-decoration-line:none;text-decoration-style:solid;text-indent:0;text-orientation:mixed;text-transform:none;white-space:normal"/>
     <path transform="matrix(1.7822 -.27334 .27334 1.7822 -128.16 -84.007)" d="m113.51 108.96c-0.80839-0.0285-1.6076 0.11191-2.3184 0.36133-1.4215 0.49884-2.6746 1.3565-3.9121 2.4004-2.4749 2.0878-4.8836 5.0071-7.0996 8.0137-4.4319 6.0132-8.0117 12.408-8.0117 12.408l4.2441 2.3789s3.4883-6.2082 7.6836-11.9c2.0977-2.8461 4.3915-5.5546 6.3203-7.1816 0.96442-0.81354 1.8402-1.3362 2.3848-1.5273s0.56856-0.12672 0.64258-0.084c5.5204 3.1872 18.464 11.073 27.551 18.32 4.5436 3.6238 8.1139 7.2681 9.1504 9.3164 0.51823 1.0242 0.37868 1.1744 0.36914 1.1894-0.01 0.015-0.5949 0.58634-2.5312 0.8711-17.039 2.5058-36.42-4.833-36.42-4.833s17.819 12.485 37.129 9.6455c2.6072-0.38342 4.7278-1.183 5.9297-3.0762 1.2019-1.8931 0.77786-4.1886-0.13476-5.9922-1.8252-3.6071-5.7108-7.1368-10.459-10.924-9.4965-7.5741-22.479-15.458-28.15-18.732-0.74203-0.42841-1.5588-0.62576-2.3672-0.6543z" color="#000000" color-rendering="auto" dominant-baseline="auto" image-rendering="auto" solid-color="#000000" stop-color="#000000" style="font-feature-settings:normal;font-variant-alternates:normal;font-variant-caps:normal;font-variant-east-asian:normal;font-variant-ligatures:normal;font-variant-numeric:normal;font-variant-position:normal;font-variation-settings:normal;inline-size:0;isolation:auto;mix-blend-mode:normal;shape-margin:0;shape-padding:0;text-decoration-color:#000000;text-decoration-line:none;text-decoration-style:solid;text-indent:0;text-orientation:mixed;text-transform:none;white-space:normal"/>
     <path transform="matrix(1.7822 -.27334 .27334 1.7822 -128.16 -84.007)" d="m71.92 128.83s-1.5995 0.0611-3.3164 1.0527c-1.7169 0.99164-3.6111 2.9809-4.3203 6.5195a1.0325 1.0325 0 0 0 0.81055 1.2168 1.0325 1.0325 0 0 0 1.2148-0.81054c0.60385-3.0128 2.0405-4.3941 3.3262-5.1367 1.2857-0.74261 2.3594-0.77735 2.3594-0.77735a1.0325 1.0325 0 0 0 0.99414-1.0703 1.0325 1.0325 0 0 0-1.0684-0.99414z" color="#000000" color-rendering="auto" dominant-baseline="auto" image-rendering="auto" solid-color="#000000" stop-color="#000000" style="font-feature-settings:normal;font-variant-alternates:normal;font-variant-caps:normal;font-variant-east-asian:normal;font-variant-ligatures:normal;font-variant-numeric:normal;font-variant-position:normal;font-variation-settings:normal;inline-size:0;isolation:auto;mix-blend-mode:normal;shape-margin:0;shape-padding:0;text-decoration-color:#000000;text-decoration-line:none;text-decoration-style:solid;text-indent:0;text-orientation:mixed;text-transform:none;white-space:normal"/>
     <path transform="matrix(1.7822 -.27334 .27334 1.7822 -128.16 -84.007)" d="m76.229 133.69s-1.5995 0.0611-3.3164 1.0527c-1.7169 0.99164-3.6111 2.9828-4.3203 6.5215a1.0325 1.0325 0 0 0 0.81055 1.2148 1.0325 1.0325 0 0 0 1.2148-0.81055c0.60385-3.0128 2.0405-4.3941 3.3262-5.1367 1.2857-0.74261 2.3594-0.77734 2.3594-0.77734a1.0325 1.0325 0 0 0 0.99609-1.0703 1.0325 1.0325 0 0 0-1.0703-0.99414z" color="#000000" color-rendering="auto" dominant-baseline="auto" image-rendering="auto" solid-color="#000000" stop-color="#000000" style="font-feature-settings:normal;font-variant-alternates:normal;font-variant-caps:normal;font-variant-east-asian:normal;font-variant-ligatures:normal;font-variant-numeric:normal;font-variant-position:normal;font-variation-settings:normal;inline-size:0;isolation:auto;mix-blend-mode:normal;shape-margin:0;shape-padding:0;text-decoration-color:#000000;text-decoration-line:none;text-decoration-style:solid;text-indent:0;text-orientation:mixed;text-transform:none;white-space:normal"/>
     <path transform="matrix(1.7822 -.27334 .27334 1.7822 -128.16 -84.007)" d="m80.104 138.19s-1.6015 0.0611-3.3184 1.0527c-1.7169 0.99165-3.6091 2.9809-4.3184 6.5195a1.0325 1.0325 0 0 0 0.80859 1.2148 1.0325 1.0325 0 0 0 1.2168-0.80859c0.60385-3.0128 2.0405-4.3961 3.3262-5.1387 1.2857-0.74261 2.3594-0.77734 2.3594-0.77734a1.0325 1.0325 0 0 0 0.99414-1.0684 1.0325 1.0325 0 0 0-1.0684-0.99414z" color="#000000" color-rendering="auto" dominant-baseline="auto" image-rendering="auto" solid-color="#000000" stop-color="#000000" style="font-feature-settings:normal;font-variant-alternates:normal;font-variant-caps:normal;font-variant-east-asian:normal;font-variant-ligatures:normal;font-variant-numeric:normal;font-variant-position:normal;font-variation-settings:normal;inline-size:0;isolation:auto;mix-blend-mode:normal;shape-margin:0;shape-padding:0;text-decoration-color:#000000;text-decoration-line:none;text-decoration-style:solid;text-indent:0;text-orientation:mixed;text-transform:none;white-space:normal"/>
    </g>
   </g>
  </g>
 </g>
</svg>
